# Blender 4.1.1
# www.blender.org
mtllib cube.mtl
o Cube
v -1.000000 -1.000000 1.000000
v -1.000000 1.000000 1.000000
v -1.000000 -1.000000 -1.000000
v -1.000000 1.000000 -1.000000
v 1.000000 -1.000000 1.000000
v 1.000000 1.000000 1.000000
v 1.000000 -1.000000 -1.000000
v 1.000000 1.000000 -1.000000
vn -1.0000 -0.0000 -0.0000
vn -0.0000 -0.0000 -1.0000
vn 1.0000 -0.0000 -0.0000
vn -0.0000 -0.0000 1.0000
vn -0.0000 -1.0000 -0.0000
vn -0.0000 1.0000 -0.0000
vt 0.062863 0.092892
vt 0.096235 0.059519
vt 0.062863 0.059519
vt 0.096235 0.092892
vt 0.096235 0.062747
vt 0.062863 0.029375
vt 0.062863 0.062747
vt 0.062641 0.499954
vt 0.093310 0.469286
vt 0.093310 0.499954
vt 0.096235 0.029375
vt 0.062641 0.469286
s 0
usemtl Top
f 4/8/6 6/9/6 8/10/6
f 4/8/6 2/12/6 6/9/6
usemtl Side
f 2/1/1 3/2/1 1/3/1
f 4/1/2 7/2/2 3/3/2
f 8/4/3 5/3/3 7/2/3
f 6/4/4 1/3/4 5/2/4
f 7/5/5 1/6/5 3/7/5
f 2/1/1 4/4/1 3/2/1
f 4/1/2 8/4/2 7/2/2
f 8/4/3 6/1/3 5/3/3
f 6/4/4 2/1/4 1/3/4
f 7/5/5 5/11/5 1/6/5
